<?xml version="1.0" encoding="utf-8"?>
<!-- Generator: Adobe Illustrator 23.0.2, SVG Export Plug-In . SVG Version: 6.00 Build 0)  -->
<svg version="1.1" id="Ebene_1" xmlns="http://www.w3.org/2000/svg" xmlns:xlink="http://www.w3.org/1999/xlink" x="0px" y="0px"
	 viewBox="0 0 251.2 64.3" style="enable-background:new 0 0 251.2 64.3;" xml:space="preserve">
<style type="text/css">
	.st0{fill:#020203;}
</style>
<g>
	<path class="st0" d="M123.8,18.9c1.5,1.2,2.6,2,4,1.5c0.2-0.2,0.3-0.6,0-0.9c-0.3-0.3-0.9-1.3-0.9-1.3s0-0.1-0.3-0.5
		c0-0.2,0.1-0.4-0.2-0.6c0-0.1-0.1-0.4-0.2-0.5c0-0.2,0-0.3-0.2-0.5c0-0.3,0.1-0.4-0.2-0.7c0-0.4,0.1-0.6-0.1-0.8
		c0-0.2-0.1-0.6-0.2-0.6c-0.1-0.1-0.1-0.9-0.2-1c-0.1-0.1-0.5-0.1-0.8,0c-0.2,0.1-0.6,0.1-0.6,0.1s-0.5,0-0.6-0.1
		c-0.2-0.2-0.9-0.8-0.9-1c0-0.2,0.3-0.8,0.1-1c-0.2-0.2-0.5-0.4-0.6-0.3c-0.1,0.1-1.4,0.6-1.6,0.8c-0.3,0.2-0.8,0.7-0.9,0.8
		c-0.2,0-0.4,0.2-0.5,0.3c-0.1,0.1-0.4,0.2-0.5,0.3c-0.1,0,0,0.5,0.5,1.3C119.4,14.6,122.3,17.7,123.8,18.9z"/>
	<path class="st0" d="M7.3,34.6c0.8,0,2.1,0.2,2.8,0.4c0.7,0.2,1.1,0.4,2.1,1.1l1.2-2.1c-1.2-0.7-1.6-0.9-2.5-1.2
		c-1.1-0.3-2.3-0.5-3.5-0.5c-4.1,0-6.8,2.2-6.8,5.4c0,2.1,1.3,3.7,4.4,5.4c1.9,1.1,3.1,1.6,3.4,1.8c0.8,0.5,1.4,1.1,1.7,1.7
		c0.2,0.4,0.3,0.9,0.3,1.5c0,2-1.5,3.1-3.9,3.1c-1.1,0-2.1-0.2-3-0.5c-0.7-0.3-1.2-0.6-2.4-1.3l-1.3,2c1.3,0.9,1.9,1.2,2.6,1.5
		c1.1,0.4,2.4,0.7,3.8,0.7c4.1,0,6.8-2.2,6.8-5.7c0-1.5-0.6-2.9-1.6-3.7C11,43.5,9.9,42.8,8.5,42c-4.2-2.2-5.1-3-5.1-4.5
		C3.4,35.8,5,34.6,7.3,34.6"/>
	<path class="st0" d="M6.6,53.7c-1.4,0-2.7-0.2-3.8-0.7c-0.8-0.3-1.3-0.6-2.7-1.5l-0.1,0l1.4-2.2l0.1,0c1.1,0.8,1.6,1.1,2.3,1.3
		c0.9,0.3,1.9,0.5,2.9,0.5c2.4,0,3.8-1.1,3.8-3c0-0.6-0.1-1.1-0.3-1.4C9.9,46,9.3,45.5,8.5,45c-0.1-0.1-0.3-0.1-0.5-0.3
		c-0.6-0.3-1.6-0.8-2.9-1.6c-3.1-1.7-4.4-3.3-4.4-5.5c0-3.3,2.8-5.5,6.9-5.5c1.3,0,2.5,0.2,3.5,0.5c0.8,0.3,1.3,0.5,2.5,1.2l0.1,0
		l-1.3,2.3l-0.1,0c-1.1-0.6-1.5-0.8-2.1-1.1c-0.8-0.2-2-0.4-2.8-0.4c-2.3,0-3.8,1.1-3.8,2.8c0,1.5,0.8,2.2,5,4.4
		c1.5,0.8,2.5,1.5,3.3,2.1c1,0.9,1.6,2.3,1.6,3.8C13.4,51.4,10.8,53.7,6.6,53.7 M0.2,51.3c1.3,0.9,1.8,1.2,2.6,1.5
		c1.1,0.4,2.4,0.7,3.8,0.7c4.1,0,6.7-2.2,6.7-5.6c0-1.5-0.6-2.8-1.6-3.7c-0.7-0.6-1.8-1.3-3.2-2.1c-4.3-2.3-5.1-3-5.1-4.6
		c0-1.8,1.6-3,4-3c0.8,0,2.1,0.2,2.9,0.4c0.6,0.2,1.1,0.4,2.1,1l1.1-2c-1.1-0.7-1.6-0.9-2.4-1.2c-1-0.3-2.2-0.5-3.4-0.5
		c-4,0-6.7,2.2-6.7,5.4c0,2.1,1.3,3.7,4.3,5.3c1.4,0.8,2.4,1.3,2.9,1.6c0.2,0.1,0.4,0.2,0.5,0.3c0.8,0.5,1.4,1.1,1.8,1.7
		c0.2,0.4,0.3,0.9,0.3,1.5c0,2-1.5,3.2-4,3.2c-1,0-2.1-0.2-3-0.5c-0.7-0.3-1.2-0.6-2.3-1.3L0.2,51.3z"/>
	<path class="st0" d="M35.2,50c-0.1-0.1-0.1-0.2-0.1-0.3c-0.2-0.6-0.2-0.6-0.4-0.9c-0.1-0.2-0.2-0.4-0.3-0.5L24.2,32.6h-3.3v20.5
		h2.6V35.4c0.1,0.4,0.2,0.6,0.3,0.8c0,0.1,0.1,0.2,0.2,0.5c0.2,0.3,0.3,0.6,0.4,0.7l10.4,16h3V32.6h-2.6L35.2,50"/>
	<path class="st0" d="M37.8,53.5h-3.1l0,0L24.3,37.3c-0.1-0.2-0.2-0.4-0.4-0.7c0-0.1-0.1-0.1-0.1-0.2c-0.1-0.1-0.1-0.2-0.2-0.3
		c-0.1-0.1-0.1-0.2-0.1-0.3v17.4h-2.7V32.5h3.5l0,0l10.2,15.7c0.1,0.1,0.2,0.3,0.3,0.5c0,0.1,0.1,0.2,0.1,0.3
		c0.1,0.1,0.1,0.3,0.2,0.6v-17h2.7L37.8,53.5 M34.8,53.3h2.8V32.7h-2.4V50l-0.2,0c0-0.1-0.1-0.2-0.1-0.2c0,0,0-0.1,0-0.1
		c-0.1-0.4-0.2-0.5-0.3-0.7c0-0.1-0.1-0.1-0.1-0.3c-0.1-0.2-0.2-0.4-0.3-0.5L24.2,32.7H21v20.4h2.4V35.4l0.2,0
		c0.1,0.4,0.2,0.5,0.3,0.8l0,0c0,0.1,0.1,0.2,0.1,0.3c0,0.1,0.1,0.1,0.1,0.2c0.1,0.3,0.3,0.5,0.4,0.6l0,0.1L34.8,53.3z"/>
	<polyline class="st0" points="49.4,43.8 56.9,43.8 56.9,41.6 49.4,41.6 49.4,34.8 58.4,34.8 58.4,32.6 46.9,32.6 46.9,53.2 
		58.7,53.2 58.7,51 49.4,51 49.4,43.8 	"/>
	<path class="st0" d="M58.8,53.3h-12V32.5h11.7v2.3h-9v6.7h7.4v2.3h-7.4v7.1h9.3L58.8,53.3 M47,53.1h11.6v-2h-9.3v-7.4h7.4v-2h-7.4
		v-7h9v-2H47V53.1z"/>
	<polyline class="st0" points="100.5,32.6 97.6,32.6 89.6,42.8 97.8,53.2 100.9,53.2 92.5,42.6 100.5,32.6 	"/>
	<path class="st0" d="M101.1,53.3h-3.4l0,0l-8.3-10.4l0-0.1l8.1-10.2h3.2l-8.1,10.1L101.1,53.3 M97.8,53.1h2.9l-8.4-10.5l0-0.1
		l7.9-9.8h-2.7l-8,10.1L97.8,53.1z"/>
	<rect x="86.8" y="32.6" class="st0" width="2.6" height="20.5"/>
	<path class="st0" d="M86.7,32.5h2.7v20.7h-2.7V32.5z M86.9,53.1h2.4V32.7h-2.4V53.1z"/>
	<path class="st0" d="M155.7,48.7c-0.1,0.3-0.2,0.6-0.2,1c0-0.4-0.1-0.7-0.2-1l-6.1-16h-2.7l8.1,21.1h1.6l8-21.1h-2.6L155.7,48.7"/>
	<path class="st0" d="M156.2,53.8h-1.7l0-0.1l-8.1-21.2h2.9l0,0.1l6.1,16c0,0.1,0.1,0.2,0.1,0.4c0-0.1,0.1-0.2,0.1-0.4l5.9-16.1h2.7
		L156.2,53.8 M154.6,53.6h1.4l7.9-20.9h-2.4l-5.8,16c-0.1,0.4-0.2,0.6-0.2,1l-0.2,0c0-0.4-0.1-0.7-0.2-1l-6-16h-2.5L154.6,53.6z"/>
	<polyline class="st0" points="172.7,43.8 180.1,43.8 180.1,41.6 172.7,41.6 172.7,34.8 181.7,34.8 181.7,32.6 170.1,32.6 
		170.1,53.2 181.9,53.2 181.9,51 172.7,51 172.7,43.8 	"/>
	<path class="st0" d="M182,53.3h-12V32.5h11.7v2.3h-9v6.7h7.4v2.3h-7.4v7.1h9.3V53.3 M170.2,53.1h11.6v-2h-9.3v-7.4h7.4v-2h-7.4v-7
		h9v-2h-11.4L170.2,53.1L170.2,53.1z"/>
	<path class="st0" d="M203.5,50c-0.1-0.1-0.1-0.2-0.1-0.3c-0.2-0.6-0.2-0.6-0.4-0.9c-0.1-0.2-0.2-0.4-0.3-0.5l-10.2-15.7h-3.3v20.5
		h2.6V35.4c0.1,0.4,0.2,0.6,0.3,0.8c0,0.1,0.1,0.2,0.2,0.5c0.2,0.3,0.3,0.6,0.4,0.7l10.4,16h3V32.6h-2.6V50"/>
	<path class="st0" d="M206.1,53.5H203l0,0l-10.4-16.1c-0.1-0.2-0.2-0.4-0.4-0.7c0-0.1-0.1-0.1-0.1-0.2c-0.1-0.1-0.1-0.2-0.2-0.3
		c-0.1-0.1-0.1-0.2-0.1-0.3v17.4h-2.7V32.5h3.5l0,0l10.2,15.7c0.1,0.1,0.2,0.3,0.3,0.5c0,0.1,0.1,0.2,0.1,0.3
		c0.1,0.1,0.1,0.3,0.2,0.5v-17h2.7L206.1,53.5 M203.1,53.3h2.8V32.7h-2.4V50l-0.2,0c0-0.1-0.1-0.2-0.1-0.2c0,0,0-0.1,0-0.1
		c-0.1-0.4-0.2-0.5-0.3-0.7c0-0.1-0.1-0.1-0.1-0.3c-0.1-0.2-0.2-0.4-0.3-0.5l-10.2-15.6h-3.2v20.4h2.4V35.4l0.2,0
		c0.1,0.4,0.2,0.5,0.3,0.8l0,0c0,0.1,0.1,0.2,0.1,0.3c0,0,0.1,0.1,0.1,0.2c0.1,0.3,0.3,0.5,0.4,0.6l0,0.1L203.1,53.3z"/>
	<path class="st0" d="M228.1,45.4c0,2.6-0.2,3.3-1.2,4.4c-1,1.2-2.5,1.8-4.3,1.8s-3.3-0.6-4.3-1.8c-1-1.1-1.2-1.8-1.2-4.4V32.6h-2.6
		v13.5c0,2.7,0.7,4.3,2.4,5.7c1.5,1.2,3.5,1.9,5.7,1.9c2.2,0,4.1-0.7,5.6-1.9c1.7-1.4,2.4-3,2.4-5.7V32.6h-2.6L228.1,45.4"/>
	<path class="st0" d="M222.7,53.9c-2.2,0-4.2-0.7-5.7-1.9c-1.7-1.4-2.4-3.1-2.4-5.8V32.5h2.7v12.8c0,2.5,0.2,3.2,1.2,4.3
		c1,1.1,2.5,1.7,4.2,1.7s3.2-0.6,4.2-1.7c1-1.1,1.2-1.8,1.2-4.3V32.5h2.7v13.6c0,2.8-0.7,4.4-2.4,5.8
		C226.8,53.2,224.9,53.9,222.7,53.9 M214.7,32.7v13.4c0,2.6,0.7,4.3,2.4,5.7c1.5,1.2,3.4,1.9,5.6,1.9c2.2,0,4.1-0.6,5.6-1.9
		c1.7-1.4,2.3-3,2.3-5.7V32.7h-2.4v12.6c0,2.6-0.2,3.3-1.2,4.4c-1.1,1.2-2.6,1.8-4.4,1.8c-1.8,0-3.3-0.6-4.4-1.8
		c-1-1.1-1.2-1.8-1.2-4.4V32.7H214.7z"/>
	<polyline class="st0" points="241.8,51 241.8,43.8 249.3,43.8 249.3,41.6 241.8,41.6 241.8,34.8 250.8,34.8 250.8,32.6 239.3,32.6 
		239.3,53.2 251.1,53.2 251.1,51 241.8,51 	"/>
	<path class="st0" d="M251.2,53.3h-12V32.5h11.7v2.3h-9v6.7h7.4v2.3h-7.4v7.1h9.3L251.2,53.3 M239.4,53.1H251v-2h-9.3v-7.4h7.4v-2
		h-7.4v-7h9v-2h-11.4V53.1z"/>
	<polyline class="st0" points="70.5,32 62.8,53.2 65.6,53.2 67.7,47.1 71.9,35.4 76,47.1 78.1,53.2 80.9,53.2 73.2,32 70.5,32 	"/>
	<path class="st0" d="M81,53.3H78l-2.1-6.1l-4.1-11.5l-4.1,11.5l-2.1,6.1h-2.9l0-0.1L70.4,32h2.9L81,53.3 M78.2,53.1h2.5l-7.6-21
		h-2.6l-7.6,21h2.5l2.1-6l4.3-12l4.2,12L78.2,53.1z"/>
	<polyline class="st0" points="124.3,22.8 114,53.2 117.2,53.2 120.2,44.4 126.2,27.6 132.2,44.4 135.2,53.2 139.2,53.2 128.2,22.8 
		124.3,22.8 	"/>
	<path class="st0" d="M139.3,53.3h-4.1l-3.1-8.8l-5.9-16.6l-5.9,16.6l-3.1,8.8h-3.4l0-0.1l10.3-30.5h4.1l0,0.1L139.3,53.3
		 M135.3,53.1h3.7l-10.9-30.2h-3.8l-10.2,30.2h3l3-8.7l6.1-17.1l0.1,0.2l6,16.9L135.3,53.1z"/>
</g>
</svg>
